<mxfile host="app.diagrams.net" agent="Mozilla/5.0 (X11; Linux x86_64) AppleWebKit/537.36 (KHTML, like Gecko) Chrome/130.0.0.0 Safari/537.36" version="24.8.4">
  <diagram name="Page-1" id="PwaJWR77JtxMOgGbTjUI">
    <mxGraphModel dx="683" dy="364" grid="0" gridSize="10" guides="1" tooltips="1" connect="1" arrows="1" fold="1" page="1" pageScale="1" pageWidth="827" pageHeight="1169" math="0" shadow="0">
      <root>
        <mxCell id="0" />
        <mxCell id="1" parent="0" />
        <mxCell id="Q_q-nqVwxrKZ54m64pVc-35" value="" style="group" vertex="1" connectable="0" parent="1">
          <mxGeometry x="67" y="99" width="120" height="123" as="geometry" />
        </mxCell>
        <mxCell id="Q_q-nqVwxrKZ54m64pVc-26" value="" style="rounded=0;whiteSpace=wrap;html=1;fillColor=#1ba1e2;strokeColor=#006EAF;fontColor=#ffffff;" vertex="1" parent="Q_q-nqVwxrKZ54m64pVc-35">
          <mxGeometry y="63" width="120" height="60" as="geometry" />
        </mxCell>
        <mxCell id="Q_q-nqVwxrKZ54m64pVc-28" value="" style="rounded=0;whiteSpace=wrap;html=1;" vertex="1" parent="Q_q-nqVwxrKZ54m64pVc-35">
          <mxGeometry y="39" width="120" height="24" as="geometry" />
        </mxCell>
        <mxCell id="Q_q-nqVwxrKZ54m64pVc-29" value="" style="rounded=0;whiteSpace=wrap;html=1;" vertex="1" parent="Q_q-nqVwxrKZ54m64pVc-35">
          <mxGeometry width="120" height="39" as="geometry" />
        </mxCell>
        <mxCell id="Q_q-nqVwxrKZ54m64pVc-30" value="&lt;font style=&quot;font-size: 14px;&quot;&gt;Block A&lt;/font&gt;" style="text;html=1;align=center;verticalAlign=middle;whiteSpace=wrap;rounded=0;" vertex="1" parent="Q_q-nqVwxrKZ54m64pVc-35">
          <mxGeometry x="27" y="36" width="60" height="30" as="geometry" />
        </mxCell>
        <mxCell id="Q_q-nqVwxrKZ54m64pVc-36" value="" style="group" vertex="1" connectable="0" parent="1">
          <mxGeometry x="213" y="99" width="120" height="123" as="geometry" />
        </mxCell>
        <mxCell id="Q_q-nqVwxrKZ54m64pVc-37" value="" style="rounded=0;whiteSpace=wrap;html=1;fillColor=#1ba1e2;strokeColor=#006EAF;fontColor=#ffffff;" vertex="1" parent="Q_q-nqVwxrKZ54m64pVc-36">
          <mxGeometry y="63" width="120" height="60" as="geometry" />
        </mxCell>
        <mxCell id="Q_q-nqVwxrKZ54m64pVc-38" value="" style="rounded=0;whiteSpace=wrap;html=1;" vertex="1" parent="Q_q-nqVwxrKZ54m64pVc-36">
          <mxGeometry y="39" width="120" height="24" as="geometry" />
        </mxCell>
        <mxCell id="Q_q-nqVwxrKZ54m64pVc-39" value="" style="rounded=0;whiteSpace=wrap;html=1;" vertex="1" parent="Q_q-nqVwxrKZ54m64pVc-36">
          <mxGeometry width="120" height="39" as="geometry" />
        </mxCell>
        <mxCell id="Q_q-nqVwxrKZ54m64pVc-40" value="&lt;font style=&quot;font-size: 14px;&quot;&gt;Block A&lt;/font&gt;" style="text;html=1;align=center;verticalAlign=middle;whiteSpace=wrap;rounded=0;" vertex="1" parent="Q_q-nqVwxrKZ54m64pVc-36">
          <mxGeometry x="27" y="36" width="60" height="30" as="geometry" />
        </mxCell>
        <mxCell id="Q_q-nqVwxrKZ54m64pVc-42" value="" style="rounded=0;whiteSpace=wrap;html=1;fillColor=#1ba1e2;strokeColor=#006EAF;fontColor=#ffffff;" vertex="1" parent="1">
          <mxGeometry x="370" y="163" width="120" height="60" as="geometry" />
        </mxCell>
        <mxCell id="Q_q-nqVwxrKZ54m64pVc-44" value="" style="rounded=0;whiteSpace=wrap;html=1;" vertex="1" parent="1">
          <mxGeometry x="370" y="100" width="120" height="62" as="geometry" />
        </mxCell>
        <mxCell id="Q_q-nqVwxrKZ54m64pVc-47" value="&lt;font style=&quot;font-size: 18px;&quot;&gt;Node 1&lt;/font&gt;" style="text;html=1;align=center;verticalAlign=middle;whiteSpace=wrap;rounded=0;" vertex="1" parent="1">
          <mxGeometry x="97" y="223" width="60" height="30" as="geometry" />
        </mxCell>
        <mxCell id="Q_q-nqVwxrKZ54m64pVc-48" value="&lt;font style=&quot;font-size: 18px;&quot;&gt;Node 2&lt;/font&gt;" style="text;html=1;align=center;verticalAlign=middle;whiteSpace=wrap;rounded=0;" vertex="1" parent="1">
          <mxGeometry x="243" y="222" width="60" height="30" as="geometry" />
        </mxCell>
        <mxCell id="Q_q-nqVwxrKZ54m64pVc-49" value="&lt;font style=&quot;font-size: 18px;&quot;&gt;Node 3&lt;/font&gt;" style="text;html=1;align=center;verticalAlign=middle;whiteSpace=wrap;rounded=0;" vertex="1" parent="1">
          <mxGeometry x="400" y="222" width="60" height="30" as="geometry" />
        </mxCell>
      </root>
    </mxGraphModel>
  </diagram>
</mxfile>
